<svg id="_16" data-name="16" xmlns="http://www.w3.org/2000/svg" viewBox="0 0 99.08 99.09"><title>ArtWebsiteSocialMediaIcons</title><ellipse cx="49.53" cy="49.56" rx="49.52" ry="49.53" style="fill:#367abd"/><path d="M36.85,49.57A12.68,12.68,0,1,1,49.52,62.27,12.7,12.7,0,0,1,36.85,49.57ZM62.62,24.76H36.44A11.77,11.77,0,0,0,24.7,36.49V62.68A11.78,11.78,0,0,0,36.44,74.41H62.62A11.77,11.77,0,0,0,74.36,62.68V36.49A11.75,11.75,0,0,0,62.62,24.76ZM36.44,27.69H62.62a8.81,8.81,0,0,1,8.8,8.8V62.68a8.81,8.81,0,0,1-8.8,8.8H36.44a8.81,8.81,0,0,1-8.8-8.8V36.49a8.81,8.81,0,0,1,8.8-8.8Zm28.79,3.7A2.58,2.58,0,1,0,67.81,34a2.57,2.57,0,0,0-2.58-2.58Zm.3,18.18a16,16,0,1,0-16,16,16,16,0,0,0,16-16Z" style="fill:#fff;fill-rule:evenodd"/></svg>