<svg id="_16" data-name="16" xmlns="http://www.w3.org/2000/svg" viewBox="0 0 99.04 99.06"><title>ArtWebsiteSocialMediaIcons</title><ellipse cx="49.52" cy="49.53" rx="49.52" ry="49.53" style="fill:#367abd"/><path d="M74.8,34.11a22.1,22.1,0,0,1-5.95,1.62,10.23,10.23,0,0,0,4.58-5.68,21.13,21.13,0,0,1-6.61,2.49,10.42,10.42,0,0,0-18,7,10.67,10.67,0,0,0,.3,2.33A29.44,29.44,0,0,1,27.77,31.17,10.08,10.08,0,0,0,31,44.8a10,10,0,0,1-4.69-1.26v.14A9.66,9.66,0,0,0,27,47.35a10.34,10.34,0,0,0,7.62,6.31,10.19,10.19,0,0,1-2.74.38,9.26,9.26,0,0,1-1.95-.22A10.46,10.46,0,0,0,39.59,61a21,21,0,0,1-12.86,4.36c-.85,0-1.64-.06-2.49-.14a29.94,29.94,0,0,0,15.9,4.58c16.2,0,26.21-11.21,28.82-22.87a28.06,28.06,0,0,0,.69-6.17V39.4a21.45,21.45,0,0,0,5.16-5.29Z" style="fill:#fff;fill-rule:evenodd"/></svg>