<?xml version="1.0" encoding="utf-8"?>
<!-- Generator: Adobe Illustrator 21.0.0, SVG Export Plug-In . SVG Version: 6.00 Build 0)  -->
<svg version="1.1" id="Layer_1" xmlns="http://www.w3.org/2000/svg" xmlns:xlink="http://www.w3.org/1999/xlink" x="0px" y="0px"
	 viewBox="0 0 341.9 125.6" style="enable-background:new 0 0 341.9 125.6;" xml:space="preserve">
<style type="text/css">
	.st0{fill:#00508D;stroke:#00508D;}
</style>
<g>
	<path class="st0" d="M51.3,67.3c3.8,1.2,8.1,0.6,10.3-0.5c2.5-1.3,2.8-4.7,3.7-4.5c2.5,0.7-2.9,10.3-13.9,10
		c-4.9-0.1-7.9-0.8-12.4-2.8l-8.3-3.7C28,64.6,25,64.5,23,65.1c-4.9,1.4-4.1,5.5-6,4.9c-1.6-0.5,1.6-4.8,3.9-6.4
		c2.7-2,8-2.5,8.3-2.4C18.9,58.5,10.6,49,10.5,37.3c-0.1-13.5,11.7-25,24.3-25c13.3,0,24,11,24.3,24.3c0.3,13.4-9.9,24.6-23.2,25.5
		L51.3,67.3z M35.4,60.6c12.2-0.1,16.4-12.8,16.1-24c-0.3-10.9-4.7-22.7-16.5-22.8c-12.5-0.1-16.4,11.5-16.8,22.3
		C17.6,47.7,22.4,60.7,35.4,60.6z"/>
	<path class="st0" d="M91.6,51.9v-18c0-2-0.6-3.9-1.7-5.5c-1.6-2.4-4.3-1.5-4.3-2.6c0-0.6,0.5-0.8,0.9-0.8h11.1c0.5,0,1.2,0,1.2,0.6
		c0.2,1.2-2.3,0.2-4.1,3c-0.9,1.4-1.5,3.2-1.5,5.4v16.4c0,8.6-6.1,11.6-12.3,11.6c-6.6,0-13.2-3.7-13.2-10.2V29.4
		c0-1.1-0.4-1.7-1.1-2.3c-1.1-0.9-3.1-0.2-3-1.4c0-0.5,0.1-0.6,1.1-0.6h11.6c0.4,0,0.8,0.1,0.8,0.6c0,1.2-2,0.3-3.1,1.3
		c-0.8,0.7-1.1,1.4-1.1,2.4v20.9c0,2.3,0,10,9.2,10C90.3,60.3,91.6,53.5,91.6,51.9z"/>
	<path class="st0" d="M106.1,29.3c0-1-0.3-1.7-1-2.3c-1-1-3.4,0-3.3-1.3c0-0.5,0.1-0.6,1.1-0.6h11.6c0.5,0,1.2,0,1.2,0.6
		c0,1.2-2,0.2-3.2,1.2c-0.8,0.7-1,1.5-1,2.5v27.3c0,1.8,0.3,2.4,1.1,2.8c1.3,0.7,3.5,0,3.6,1.4c0,0.5-0.4,0.6-0.8,0.6h-13
		c-0.4,0-0.9-0.2-0.9-0.6c0-1.5,2.2-0.4,3.5-1.5c0.7-0.5,0.9-1,0.9-2.7V29.3z"/>
	<path class="st0" d="M147.3,52.2v-19c0-2.7-0.5-4.6-2.5-6.1c-1.1-0.8-3.4-0.2-3.3-1.4c0-0.5,0.1-0.6,1.1-0.6h11.6c0.4,0,1,0,1,0.6
		c-0.1,1.1-1.7,0.4-2.9,1.2c-2.3,1.4-3.1,3.5-3.1,6.2v28.1c0,0.8,0,0.9-0.5,1c-0.6,0.1-1-0.5-1.3-1l-20.2-28.1v20.1
		c0,1.6,0.3,4.1,2,5.6c1.8,1.7,4.1,0.6,4.2,2c0,0.5-0.4,0.6-0.8,0.6h-12.2c-0.4,0-0.9-0.2-0.9-0.6c0-1.3,2-0.5,3.6-1.7
		c1.7-1.3,2.2-3.6,2.2-6.1V30.7c0,0-2.4-2.9-3.1-3.5c-1.1-1-3.1-0.3-3-1.5c0-0.5,0.2-0.6,1.1-0.6h7.2L147.3,52.2z"/>
	<path class="st0" d="M186.5,52.2v-19c0-2.7-0.5-4.6-2.5-6.1c-1.1-0.8-3.4-0.2-3.3-1.4c0-0.5,0.1-0.6,1.1-0.6h11.6c0.4,0,1,0,1,0.6
		c-0.1,1.1-1.7,0.4-2.9,1.2c-2.3,1.4-3.1,3.5-3.1,6.2v28.1c0,0.8,0,0.9-0.5,1c-0.6,0.1-1-0.5-1.3-1l-20.2-28.1v20.1
		c0,1.6,0.3,4.1,2,5.6c1.8,1.7,4.1,0.6,4.2,2c0,0.5-0.4,0.6-0.8,0.6h-12.2c-0.4,0-0.9-0.2-0.9-0.6c0-1.3,2-0.5,3.6-1.7
		c1.7-1.3,2.2-3.6,2.2-6.1V30.7c0,0-2.4-2.9-3.1-3.5c-1.1-1-3.1-0.3-3-1.5c0-0.5,0.2-0.6,1.1-0.6h7.2L186.5,52.2z"/>
	<path class="st0" d="M201.9,29.3c0-1-0.3-1.7-1-2.3c-1-1-3.4,0-3.3-1.3c0-0.5,0.2-0.6,1.1-0.6h11.6c0.5,0,1.2,0,1.2,0.6
		c0,1.2-2,0.2-3.2,1.2c-0.8,0.7-1,1.5-1,2.5v27.3c0,1.8,0.3,2.4,1.1,2.8c1.4,0.7,3.5,0,3.6,1.4c0,0.5-0.4,0.6-0.8,0.6h-13
		c-0.4,0-0.9-0.2-0.9-0.6c0-1.5,2.2-0.4,3.5-1.5c0.7-0.5,0.9-1,0.9-2.7V29.3z"/>
	<path class="st0" d="M224.6,45.4v11.5c0,1.4,0.6,2.1,1.6,2.8c1.3,0.9,3.7,0,3.8,1.3c0,0.5-0.4,0.6-0.8,0.6h-13.5
		c-0.4,0-0.9-0.1-0.9-0.5c0-1.4,2.4-0.5,3.6-1.5c0.9-0.9,0.8-1.6,0.8-2.6V29.3c0-1-0.6-1.8-1.3-2.2c-1.2-0.7-3.2-0.1-3.1-1.4
		c0-0.5,0.3-0.6,1.1-0.6h13.5c4.4,0,12.2,1.8,12.7,10c0.4,7.3-8,10.3-15.1,10.3H224.6z M224.6,26.3v17.5c1.8,0.5,12.2,1,12-8.3
		c-0.1-5.3-2.4-9.1-7.3-9.1H224.6z"/>
	<path class="st0" d="M249.4,29.3c0-1-0.3-1.7-1-2.3c-1-1-3.4,0-3.3-1.3c0-0.5,0.1-0.6,1.1-0.6h11.6c0.5,0,1.2,0,1.2,0.6
		c0,1.2-2,0.2-3.2,1.2c-0.8,0.7-1,1.5-1,2.5v27.3c0,1.8,0.3,2.4,1.1,2.8c1.3,0.7,3.5,0,3.6,1.4c0,0.5-0.4,0.6-0.8,0.6h-13
		c-0.4,0-0.9-0.2-0.9-0.6c0-1.5,2.2-0.4,3.5-1.5c0.7-0.5,0.9-1,0.9-2.7V29.3z"/>
	<path class="st0" d="M272.3,51.7c-0.9,2.6-1.4,5.3,0.7,7.2c1.7,1.6,3.3,0.7,3.4,2c0,0.5-0.4,0.6-0.8,0.6h-12.3
		c-0.4,0-0.9-0.2-0.9-0.6c-0.1-1.3,2-0.6,3.9-2.1c1.6-1.3,2.7-2.6,4.4-7.3l7.6-20.8l-0.7-0.8c-0.3-0.3-0.7-0.6-0.5-0.9
		c0.2-0.4,1.1-1.2,1.8-2.1c1.3-2,1.1-3.5,2-3.5c0.6,0,0.7,0.7,0.9,1.2l13.1,32.1c0.4,1.1,0.9,1.8,1.8,2.6c1.4,1.2,2.8,0.3,2.8,1.6
		c0,0.5-0.6,0.6-1.3,0.6h-12c-0.4,0-0.9-0.2-0.9-0.6c-0.1-1.4,2.8-0.5,3.5-1.7c0.8-1.2,0.2-2.4-0.3-3.8l-3.1-7.6h-11.7L272.3,51.7z
		 M274.1,46.5h10.7l-5.6-14.2L274.1,46.5z"/>
	<path class="st0" d="M316.8,60.9c6.1,0.1,12-4.4,13-10.9l0.2-1.5c0.1-0.4,0.2-1,0.7-1c0.4,0,0.6,0.5,0.6,1v12.3c0,0.5,0,1-0.6,1.1
		c-1.3,0.2-0.5-1.6-2.3-2.4c-1.3-0.5-5.1,2.8-11.8,2.7c-10.5-0.2-17.2-9.1-17.1-19c0.1-9.8,8-18.4,17.3-18.6
		c5.7-0.1,10.3,3.3,11.9,2.5c1.2-0.6,0.6-2.5,1.6-2.5c0.6,0,0.7,0.6,0.7,1.1v12.5c0,0.5-0.1,1-0.6,1c-0.6,0-0.6-0.5-0.7-0.9
		l-0.3-1.5c-1.3-6.4-6.1-11.3-12.6-11.2c-8.4,0.1-11.4,9.2-11.5,17.2C304.9,51.2,307.9,60.8,316.8,60.9z"/>
</g>
<path class="st0" d="M90.8,104.2V86.8c0-2-0.5-3.7-1.6-5.3C87.6,79.1,85,80,85,79c0-0.6,0.5-0.8,0.9-0.8h10.8c0.5,0,1.1,0,1.2,0.5
	c0.2,1.1-2.3,0.2-4,2.9c-0.9,1.3-1.5,3.1-1.5,5.2v15.9c0,8.4-5.9,11.3-11.9,11.3c-6.4,0-12.8-3.6-12.8-9.9V82.4c0-1-0.4-1.7-1-2.2
	c-1-0.9-3-0.2-2.9-1.4c0-0.5,0.1-0.6,1.1-0.6H76c0.4,0,0.8,0.1,0.7,0.6c0,1.1-1.9,0.3-3.1,1.3c-0.7,0.7-1.1,1.4-1.1,2.4v20.3
	c0,2.2,0,9.7,8.9,9.7C89.6,112.4,90.8,105.8,90.8,104.2z"/>
<path class="st0" d="M117.3,106.8V92.9c0-2-0.4-3.4-1.8-4.4c-0.8-0.6-2.4-0.2-2.4-1c0-0.4,0.1-0.4,0.8-0.4h8.4c0.3,0,0.7,0,0.7,0.4
	c-0.1,0.8-1.3,0.3-2.1,0.9c-1.6,1.1-2.2,2.6-2.2,4.5v20.4c0,0.6,0,0.7-0.3,0.8c-0.4,0.1-0.7-0.3-0.9-0.7L102.7,93v14.6
	c0,1.2,0.3,2.9,1.5,4.1c1.3,1.2,3,0.4,3.1,1.5c0,0.3-0.3,0.4-0.6,0.4h-8.9c-0.3,0-0.7-0.1-0.7-0.4c0-1,1.4-0.3,2.6-1.2
	c1.2-0.9,1.6-2.6,1.6-4.4V91.1c0,0-1.7-2.1-2.2-2.5c-0.8-0.7-2.3-0.2-2.2-1.1c0-0.4,0.1-0.4,0.8-0.4h5.2L117.3,106.8z"/>
<path class="st0" d="M128.4,90.1c0-0.7-0.2-1.3-0.7-1.7c-0.8-0.7-2.4,0-2.4-0.9c0-0.4,0.1-0.4,0.8-0.4h8.4c0.4,0,0.9,0,0.9,0.4
	c0,0.9-1.5,0.1-2.3,0.9c-0.6,0.5-0.7,1.1-0.7,1.8v19.9c0,1.3,0.2,1.7,0.8,2.1c1,0.5,2.6,0,2.6,1c0,0.3-0.3,0.4-0.6,0.4h-9.5
	c-0.3,0-0.7-0.1-0.7-0.4c0-1.1,1.6-0.3,2.6-1.1c0.5-0.4,0.7-0.7,0.7-1.9V90.1z"/>
<path class="st0" d="M138.6,87h8.9c0.3,0,0.7,0.1,0.7,0.4c0,0.3-0.1,0.5-0.5,0.6l-0.8,0.1c-0.5,0.1-0.8,0.3-1.1,0.6
	c-0.6,0.7-0.3,1.9-0.1,2.4l7,18.1l5.2-14.9c0.6-1.7,0.6-3.7,0.1-4.7c-1.3-2.2-3.1-1.2-3.2-2.2c0-0.3,0.3-0.5,0.6-0.5h8.8
	c0.3,0,0.7,0.1,0.8,0.4c0.1,0.7-1.2,0.5-2.3,1.3c-0.9,0.6-2.5,2.6-3.6,5.9l-6.9,19.7c-0.1,0.3-0.2,0.5-0.5,0.5
	c-0.3,0-0.5-0.2-0.6-0.5l-9.2-23.4c-0.4-0.9-0.7-1.4-1.4-2.1c-0.8-0.8-2.4-0.5-2.3-1.3C138.1,87.3,138.3,87,138.6,87z"/>
<path class="st0" d="M187.9,95.4c0.1,0.2,0.1,0.4-0.2,0.5c-0.3,0.1-0.6-0.1-0.7-0.3l-0.4-0.9c-0.7-1.6-1.7-3.5-3.6-4.8
	c-2.2-1.6-5.9-1.9-6.6-1.9h-2.6v11.2h1c0.4,0,2.5-0.1,3.9-1.2c0.9-0.7,1.5-1.9,1.5-3.1v-1c0-0.4,0.1-0.7,0.4-0.7
	c0.3,0,0.5,0.3,0.5,0.6v12c0,0.3,0.1,0.7-0.4,0.7c-0.5,0-0.5-0.3-0.5-0.6l-0.1-0.9c0-0.4-0.5-2.5-1.6-3.4c-1.1-1-3-1.4-3.8-1.4h-1
	v10.1c0,1,0.1,2.6,3.4,2.7c2.8,0.1,8.6-2.2,10.4-7.6l0.4-1.2c0.1-0.3,0.3-0.8,0.7-0.7c0.3,0.1,0.4,0.4,0.3,0.7l-2.4,9.6h-19.2
	c-0.3,0-0.5-0.1-0.5-0.4c0-0.9,1.2-0.2,2.5-1.1c0.4-0.3,0.7-0.9,0.7-1.9V90.1c0-0.8-0.1-1.2-0.7-1.6c-0.8-0.6-2.4-0.1-2.4-1
	c0-0.4,0.2-0.4,0.8-0.4h17.5L187.9,95.4z"/>
<path class="st0" d="M201.6,87.9c3.6,0,5.4,2.4,5.6,6.4c0.2,6.8-8.7,5.6-9,5.5V87.9H201.6z M206.5,101.4c-0.9-0.6-1.6-0.9-2.6-1.1
	c0.6,0,7.5-1,7.3-6.4c-0.2-6.5-6.4-7-9.6-7h-9.8c-0.5,0-0.8,0.1-0.8,0.4c-0.1,0.9,1.2,0.4,2.3,1c0.6,0.3,0.9,0.8,0.9,1.6v20.1
	c0,0.8,0.1,1.3-0.6,1.9c-0.8,0.8-2.6,0.2-2.6,1.1c0,0.3,0.4,0.4,0.7,0.4h9.4c0.2,0,0.6-0.1,0.6-0.5c-0.1-1-1.4-0.3-2.5-1.1
	c-0.7-0.5-1-1.1-1-1.9v-9.3h1.3c1,0,1.7,0.1,2.6,0.6c0.9,0.5,1.4,0.9,1.9,1.9l5.5,10.3h6.1c0.3,0,0.7-0.1,0.7-0.5
	c-0.1-0.8-1.3-0.4-2-0.8c-1.1-0.6-1.8-1.1-2.4-2.3l-2.6-5C208.5,103.4,207.9,102.4,206.5,101.4z"/>
<path class="st0" d="M234.1,94c-1.2-3.6-3.5-6.4-7.2-6.5c-2.5-0.1-4.8,2-4.7,4.5c0,2.1,1.3,3.4,3.3,4.2l5.2,2.1
	c3.5,1.4,6.1,3.1,6.3,7.4c0.3,4.8-4.2,8.1-9.4,8.3c-2.9,0.1-6.3-1.9-7.4-1.5c-0.7,0.3-0.4,1.2-1,1.3c-0.3,0-0.6-0.4-0.6-0.7v-10.1
	c0-0.4,0.2-0.7,0.5-0.8c0.5-0.1,0.5,0.6,0.6,1.1l0.6,2.6c0.9,3.9,3.7,7.4,7.4,7.2c4-0.2,5.8-2.1,5.9-5.3c0.1-2.9-1.8-4.8-4.7-5.9
	l-4.9-1.9c-2.9-1.1-4.8-3.3-4.8-6.3c-0.1-4,3.6-6.9,7.8-6.9c3.3,0,5.4,1.6,6.4,1.5c0.7,0,0.6-1.4,1.2-1.2c0.2,0.1,0.4,0.3,0.4,0.5
	l0.7,8.3c0,0.3,0,0.8-0.4,0.8c-0.4,0-0.5-0.6-0.6-1L234.1,94z"/>
<path class="st0" d="M242.2,90.1c0-0.7-0.2-1.3-0.7-1.7c-0.8-0.7-2.4,0-2.4-0.9c0-0.4,0.1-0.4,0.8-0.4h8.4c0.4,0,0.9,0,0.9,0.4
	c0,0.9-1.5,0.1-2.3,0.9c-0.6,0.5-0.7,1.1-0.7,1.8v19.9c0,1.3,0.2,1.7,0.8,2.1c1,0.5,2.6,0,2.6,1c0,0.3-0.3,0.4-0.6,0.4h-9.5
	c-0.3,0-0.7-0.1-0.7-0.4c0-1.1,1.6-0.3,2.6-1.1c0.5-0.4,0.7-0.7,0.7-1.9V90.1z"/>
<path class="st0" d="M265.2,110.1c0,0.9,0.2,1.6,0.9,2c1.5,0.9,2.9,0.1,2.9,1c0,0.3-0.3,0.5-0.6,0.5H258c-0.3,0-0.7-0.2-0.7-0.5
	c0-1,1.5-0.1,3-1c0.6-0.4,0.8-1.1,0.8-1.9V87.9c-0.1,0-2.7,0.2-5.3,2.6c-3.3,3-2.9,5.8-3.8,5.6c-0.3-0.1-0.4-0.3-0.3-0.8l2.4-8.3
	c0.1-0.3,0.3-0.5,0.5-0.5c0.2,0,0.4,0.2,0.5,0.4h16.4c0-0.3,0.2-0.6,0.5-0.5c0.2,0,0.3,0.2,0.4,0.5l2.1,8.5c0.1,0.2,0.2,0.4-0.2,0.6
	c-0.7,0.3-0.8-2.1-3.4-4.8c-2.9-3.1-5.8-3.3-5.8-3.3V110.1z"/>
<path class="st0" d="M289.6,100.9l0,9.2c0,0.7,0.3,1.5,0.9,2c1.1,0.9,2.4,0.1,2.5,1c0,0.4-0.3,0.5-0.6,0.5H283
	c-0.3,0-0.7-0.1-0.7-0.4c0-1.1,1.1,0,2.7-1.3c0.6-0.5,0.7-1.2,0.7-1.8v-8.4L279.9,91c-0.5-0.9-1.2-1.9-1.8-2.3
	c-1.3-0.9-2.3-0.4-2.3-1.3c0-0.4,0.2-0.4,0.9-0.4h8.3c0.4,0,1,0,1,0.4c0,0.9-1.6,0.2-2.2,1.1c-0.6,0.8-0.1,2,0.5,3.1l4.6,8.2
	l4.2-6.6c1.3-2.1,1-3.5,0.3-4.4c-0.9-1.1-2.2-0.5-2.2-1.4c0-0.4,0.1-0.4,0.8-0.4h7.5c0.4,0,0.9,0,0.9,0.4c-0.1,0.7-0.7,0.3-1.8,1.1
	c-1,0.7-2.1,1.6-4.1,4.7L289.6,100.9z"/>
</svg>
